<svg width="92" height="55" viewBox="0 0 92 55" fill="none" xmlns="http://www.w3.org/2000/svg">
<path d="M0 49.0051C0 52.0811 2.41141 54.5742 5.38657 54.5742H86.196C89.1712 54.5742 91.5826 52.0811 91.5826 49.0051H0ZM49.0356 52.9159H42.547C41.9469 52.9159 41.4595 52.412 41.4595 51.7915C41.4595 51.1711 41.9469 50.6672 42.547 50.6672H49.0356C49.6357 50.6672 50.1231 51.1711 50.1231 51.7915C50.1231 52.412 49.6357 52.9159 49.0356 52.9159Z" fill="#00A04A"/>
<path d="M43.4244 7.47166C40.8625 10.6054 37.4931 16.8386 43.7545 23.3787C44.7925 24.4626 46.5011 24.4046 47.4582 23.2456C49.7501 20.4746 52.7418 14.7845 47.3253 7.56825C46.3495 6.26538 44.4541 6.20958 43.4244 7.47166Z" stroke="#00A04A" stroke-width="3" stroke-miterlimit="10" stroke-linecap="round" stroke-linejoin="round"/>
<path d="M45.4497 14.3613V38.9012" stroke="#00A04A" stroke-width="3" stroke-miterlimit="10" stroke-linecap="round" stroke-linejoin="round"/>
<path d="M45.46 35.2402C45.46 35.2402 45.8773 26.528 58.8195 26.528" stroke="#00A04A" stroke-width="3" stroke-miterlimit="10" stroke-linecap="round" stroke-linejoin="round"/>
<path d="M45.4461 35.9227C45.4461 35.9227 45.6225 27.1202 32.6824 27.1202" stroke="#00A04A" stroke-width="3" stroke-miterlimit="10" stroke-linecap="round" stroke-linejoin="round"/>
<path d="M67.4343 25.8416C64.5423 23.0319 58.6982 19.2263 52.0507 25.3479C50.9503 26.361 50.915 28.1296 51.9842 29.1792C54.5399 31.6905 59.8774 35.0797 67.1333 29.8661C68.4453 28.9238 68.599 26.9706 67.4343 25.8416Z" stroke="#00A04A" stroke-width="3" stroke-miterlimit="10" stroke-linecap="round" stroke-linejoin="round"/>
<path d="M24.6262 23.654C28.0081 21.5076 34.4772 19.0027 39.7877 26.3885C40.668 27.612 40.3545 29.3506 39.1026 30.1555C36.1069 32.0808 30.2171 34.2808 24.1321 27.6592C23.0318 26.4615 23.2664 24.5169 24.6262 23.654Z" stroke="#00A04A" stroke-width="3" stroke-miterlimit="10" stroke-linecap="round" stroke-linejoin="round"/>
<path d="M78.6854 0H12.8973C11.0969 0 9.63477 1.51166 9.63477 3.37303V46.0191H81.9479V3.37303C81.9479 1.51166 80.4894 0 78.6854 0ZM45.7441 0.842318C46.3005 0.842318 46.7479 1.3086 46.7479 1.88017C46.7479 2.45551 46.2969 2.92179 45.7441 2.92179C45.1912 2.92179 44.7402 2.45551 44.7402 1.88017C44.7402 1.3086 45.1912 0.842318 45.7441 0.842318ZM79.3583 40.5027C79.3583 41.5895 78.5072 42.4694 77.4561 42.4694H14.1266C13.0755 42.4694 12.2244 41.5895 12.2244 40.5027V5.61044C12.2244 4.5237 13.0755 3.64378 14.1266 3.64378H77.4597C78.5108 3.64378 79.3619 4.5237 79.3619 5.61044V40.5027H79.3583Z" fill="#00A04A"/>
</svg>
